<?xml version="1.0" standalone="no"?>
<!DOCTYPE svg PUBLIC "-//W3C//DTD SVG 20010904//EN"
 "http://www.w3.org/TR/2001/REC-SVG-20010904/DTD/svg10.dtd">
<svg version="1.0" xmlns="http://www.w3.org/2000/svg"
 width="512.000000pt" height="512.000000pt" viewBox="0 0 512.000000 512.000000"
 preserveAspectRatio="xMidYMid meet">

<g transform="translate(0.000000,512.000000) scale(0.100000,-0.100000)"
fill="#000000" stroke="none">
<path d="M1340 4802 c0 -5 -6 -9 -12 -9 -33 0 -272 -161 -415 -280 -627 -519
-974 -1349 -903 -2163 69 -787 481 -1484 1140 -1924 553 -369 1249 -506 1910
-375 644 128 1225 510 1598 1052 67 97 131 206 131 221 -1 5 5 13 13 18 9 6 5
7 -11 3 -15 -5 -26 -2 -32 6 -4 7 -11 10 -15 6 -4 -3 -1 -15 7 -24 11 -14 9
-14 -9 2 -17 14 -25 16 -31 7 -5 -9 -12 -7 -26 8 -10 11 -26 20 -34 18 -9 -1
-27 4 -40 11 -17 9 -21 10 -16 1 4 -7 -4 -4 -18 5 -16 10 -34 14 -48 10 -14
-5 -19 -4 -15 4 4 6 2 11 -4 11 -6 0 -8 5 -4 11 4 8 -1 9 -16 4 -13 -4 -20 -3
-17 2 3 5 -4 9 -16 9 -15 -1 -22 5 -21 16 1 10 -2 15 -7 12 -12 -7 -40 21 -31
31 4 5 2 5 -5 1 -6 -3 -14 -2 -18 4 -3 5 -12 10 -18 10 -7 0 -6 -4 3 -11 12
-9 12 -10 -3 -5 -10 3 -21 6 -23 6 -3 0 -2 4 1 10 3 5 1 10 -5 10 -6 0 -8 5
-5 10 4 6 1 18 -6 26 -10 13 -15 12 -33 -5 -52 -49 -57 -49 -681 -60 -323 -6
-590 -13 -592 -15 -6 -6 73 -248 95 -292 27 -53 77 -99 137 -126 47 -21 61
-22 257 -19 139 1 214 -1 228 -9 52 -28 44 -107 -14 -137 -28 -15 -119 -17
-886 -20 -470 -3 -982 -1 -1137 4 -278 8 -282 9 -307 32 -33 31 -35 82 -5 112
20 20 29 20 237 17 l217 -3 50 27 c59 31 105 77 133 133 25 51 95 275 88 282
-3 3 -252 10 -553 14 -302 5 -571 11 -600 15 -61 6 -109 36 -137 84 -18 31
-21 55 -24 200 l-4 165 1284 -4 c706 -2 1505 0 1777 4 l494 7 -6 637 c-4 350
-10 726 -13 836 l-7 200 -73 75 -74 75 7 -350 c11 -469 10 -1311 0 -1322 -5
-4 -427 -9 -938 -11 -886 -2 -929 -2 -929 15 0 10 -70 88 -155 173 -113 112
-154 160 -151 173 6 26 -13 76 -34 87 -10 6 -34 10 -52 10 -28 0 -45 12 -108
75 l-74 75 105 0 c92 0 110 3 133 21 37 29 37 89 -1 119 -26 20 -37 21 -213
19 l-185 -2 -12 24 c-7 13 -13 40 -13 59 0 30 -11 46 -87 122 l-88 88 -61 0
-61 0 -6 -272 c-4 -149 -7 -385 -7 -525 l0 -253 -150 0 -150 0 0 528 c1 533
14 1129 25 1141 4 3 71 7 150 9 l144 4 5 37 c3 20 5 91 5 159 0 114 1 126 25
166 40 69 86 86 230 86 l118 0 -34 27 c-18 15 -39 36 -47 46 -7 10 -19 16 -27
13 -8 -3 -14 -1 -14 5 0 6 -4 8 -9 5 -5 -3 -12 1 -15 10 -9 24 -7 31 4 14 6
-9 10 -10 10 -3 0 6 -5 15 -10 18 -6 4 -7 12 -4 18 4 7 4 9 -1 5 -10 -9 -38
19 -31 31 3 5 -2 8 -12 7 -11 -1 -17 6 -16 21 0 12 -4 19 -9 16 -5 -3 -6 4 -2
17 5 15 4 20 -4 16 -6 -4 -11 -2 -11 4 0 6 -5 8 -11 4 -8 -4 -9 1 -4 15 4 14
0 32 -10 48 -9 14 -12 22 -5 18 9 -5 8 -1 -1 16 -7 13 -12 30 -10 37 1 8 -5
22 -14 32 -9 10 -14 24 -10 30 4 6 -1 21 -12 33 -16 19 -16 20 0 8 9 -8 21
-11 24 -7 4 4 1 11 -6 15 -8 5 -11 17 -6 30 3 11 4 21 1 21 -3 0 -6 -4 -6 -8z"/>
<path d="M3049 3886 l73 -74 342 -6 c187 -3 422 -9 521 -12 l180 -6 -73 74
-73 74 -357 12 c-196 7 -431 12 -522 12 l-164 0 73 -74z"/>
<path d="M1574 3754 c-31 -166 98 -299 255 -264 l54 12 -144 144 c-79 79 -147
144 -151 144 -4 0 -10 -16 -14 -36z"/>
</g>
</svg>
